<svg width="5831" height="2904" xmlns="http://www.w3.org/2000/svg" xmlns:xlink="http://www.w3.org/1999/xlink" xml:space="preserve" overflow="hidden"><g transform="translate(-553 -630)"><path d="M3.88533-13.1896 255.292 60.8682 247.521 87.2475-3.88533 13.1896ZM249.873 30.6036 317.355 93.4845 226.561 109.741Z" fill="#4472C4" transform="matrix(1 0 0 -1 4143 2165.48)"/><rect x="1261.5" y="2937.5" width="978" height="445" stroke="#172C51" stroke-width="4.58333" stroke-miterlimit="8" fill="#4472C4" fill-opacity="0.8"/><path d="M603.5 982.841C603.5 802.608 749.608 656.5 929.841 656.5L2559.16 656.5C2739.39 656.5 2885.5 802.608 2885.5 982.841L2885.5 2288.16C2885.5 2468.39 2739.39 2614.5 2559.16 2614.5L929.841 2614.5C749.608 2614.5 603.5 2468.39 603.5 2288.16Z" stroke="#172C51" stroke-width="20.625" stroke-linecap="square" stroke-miterlimit="8" stroke-dasharray="61.875 20.625" fill="#00629B" fill-rule="evenodd" fill-opacity="0.6"/><rect x="3300" y="954" width="467" height="318" stroke="#172C51" stroke-width="13.75" stroke-miterlimit="8" fill="#FFFFFF"/><text font-family="Calibri,Calibri_MSFontService,sans-serif" font-weight="400" font-size="83" transform="matrix(1 0 0 1 3390.07 1048)">Memory</text><rect x="3327" y="1080" width="467" height="317" stroke="#172C51" stroke-width="13.75" stroke-miterlimit="8" fill="#FFFFFF"/><text font-family="Calibri,Calibri_MSFontService,sans-serif" font-weight="400" font-size="83" transform="matrix(1 0 0 1 3491.16 1173)">CPU</text><rect x="3364" y="1190" width="467" height="317" stroke="#172C51" stroke-width="13.75" stroke-miterlimit="8" fill="#FFFFFF"/><text font-family="Calibri,Calibri_MSFontService,sans-serif" font-weight="400" font-size="83" transform="matrix(1 0 0 1 3499.4 1283)">ROS 2 </text><text font-family="Calibri,Calibri_MSFontService,sans-serif" font-weight="400" font-size="83" transform="matrix(1 0 0 1 3475.77 1382)">reports</text><path d="M2872 1154.25 3173.07 1154.25 3173.07 1181.75 2872 1181.75ZM3159.32 1126.75 3241.82 1168 3159.32 1209.25Z" fill="#4472C4"/><path d="M3333.85 2188.78C3323.49 2124.29 3376.82 2064.89 3452.95 2056.12 3483.8 2052.56 3515.17 2057.88 3542.03 2071.21 3570.5 2025.76 3637.01 2008.48 3690.6 2032.63 3699.97 2036.85 3708.57 2042.2 3716.14 2048.51 3738.3 2010.84 3792.3 1995.53 3836.75 2014.32 3849.05 2019.52 3859.78 2027.05 3868.11 2036.31 3903.85 2000.68 3966.99 1996.28 4009.15 2026.48 4026.86 2039.18 4038.81 2056.69 4042.92 2076.01 4101.47 2089.54 4136.01 2140.8 4120.07 2190.5 4118.73 2194.68 4117.05 2198.78 4115.04 2202.76 4161.99 2254.55 4150.5 2328.77 4089.36 2368.55 4070.33 2380.93 4047.85 2388.95 4024.1 2391.83 4023.57 2447.54 3969.78 2492.35 3903.96 2491.9 3881.97 2491.75 3860.46 2486.45 3841.81 2476.6 3819.54 2539.06 3741.89 2574.37 3668.36 2555.45 3637.55 2547.53 3610.92 2530.77 3593.03 2508.03 3517.74 2546.5 3420.03 2525.8 3374.77 2461.8 3374.2 2461 3373.64 2460.19 3373.09 2459.37 3323.82 2464.26 3279.19 2434.47 3273.41 2392.84 3270.33 2370.65 3278.97 2348.44 3297.04 2332.13 3254.38 2310.85 3240.05 2264.15 3265.03 2227.82 3279.45 2206.86 3304.73 2193 3333.1 2190.51Z" stroke="#172C51" stroke-width="4.58333" stroke-miterlimit="8" fill="#4472C4" fill-rule="evenodd" fill-opacity="0.701961"/><path d="M3350.18 2340.2C3331.97 2341.4 3313.76 2337.84 3298 2329.97M3396.23 2452.05C3388.91 2454.52 3381.23 2456.16 3373.4 2456.94M3592.98 2505.79C3587.47 2498.79 3582.86 2491.31 3579.22 2483.48M3847.39 2450.15C3846.58 2458.45 3844.74 2466.66 3841.9 2474.63M3956.62 2298.86C3997.91 2315.89 4023.97 2351.49 4023.61 2390.37M4114.62 2201.4C4107.93 2214.64 4097.72 2226.39 4084.79 2235.71M4043.05 2074.08C4044.18 2079.43 4044.71 2084.86 4044.62 2090.29M3852.56 2055.18C3856.45 2047.7 3861.59 2040.74 3867.84 2034.51M3709.65 2065.03C3711.23 2058.85 3713.72 2052.86 3717.05 2047.21M3541.93 2071.08C3551.65 2075.91 3560.64 2081.71 3568.71 2088.37M3338.52 2206.98C3336.4 2201.03 3334.84 2194.95 3333.85 2188.79" stroke="#172C51" stroke-width="4.58333" stroke-miterlimit="8" fill="none" fill-rule="evenodd"/><text fill="#FFFFFF" font-family="Calibri,Calibri_MSFontService,sans-serif" font-weight="700" font-size="110" transform="matrix(1 0 0 1 3431.75 2239)">Wireshark </text><text fill="#FFFFFF" font-family="Calibri,Calibri_MSFontService,sans-serif" font-weight="700" font-size="110" transform="matrix(1 0 0 1 3528.87 2371)">traces</text><path d="M4461.5 734.336C4461.5 691.348 4496.35 656.5 4539.34 656.5L4850.66 656.5C4893.65 656.5 4928.5 691.348 4928.5 734.336L4928.5 2480.66C4928.5 2523.65 4893.65 2558.5 4850.66 2558.5L4539.34 2558.5C4496.35 2558.5 4461.5 2523.65 4461.5 2480.66Z" stroke="#172C51" stroke-width="4.58333" stroke-miterlimit="8" fill="#4472C4" fill-rule="evenodd" fill-opacity="0.8"/><text fill="#FFFFFF" font-family="Calibri,Calibri_MSFontService,sans-serif" font-weight="700" font-size="110" transform="matrix(1 0 0 1 4646.87 1269)">M</text><text fill="#FFFFFF" font-family="Calibri,Calibri_MSFontService,sans-serif" font-weight="700" font-size="110" transform="matrix(1 0 0 1 4661.87 1425)">A</text><text fill="#FFFFFF" font-family="Calibri,Calibri_MSFontService,sans-serif" font-weight="700" font-size="110" transform="matrix(1 0 0 1 4667.87 1573)">T</text><text fill="#FFFFFF" font-family="Calibri,Calibri_MSFontService,sans-serif" font-weight="700" font-size="110" transform="matrix(1 0 0 1 4671.87 1730)">L</text><text fill="#FFFFFF" font-family="Calibri,Calibri_MSFontService,sans-serif" font-weight="700" font-size="110" transform="matrix(1 0 0 1 4661.87 1887)">A</text><text fill="#FFFFFF" font-family="Calibri,Calibri_MSFontService,sans-serif" font-weight="700" font-size="110" transform="matrix(1 0 0 1 4663.87 2043)">B</text><path d="M3835.84 1335.13 4400.86 1547.57 4391.18 1573.31 3826.16 1360.87ZM4397.67 1516.99 4460.38 1584.63 4368.64 1594.21Z" fill="#4472C4"/><path d="M5245.5 911.5C5245.5 757.413 5492.19 632.5 5796.5 632.5 6100.81 632.5 6347.5 757.413 6347.5 911.5 6347.5 1065.59 6100.81 1190.5 5796.5 1190.5 5492.19 1190.5 5245.5 1065.59 5245.5 911.5Z" stroke="#172C51" stroke-width="4.58333" stroke-miterlimit="8" fill="#4472C4" fill-rule="evenodd" fill-opacity="0.701961"/><text fill="#FFFFFF" font-family="Calibri,Calibri_MSFontService,sans-serif" font-weight="700" font-size="110" transform="matrix(1 0 0 1 5497.01 948)">Packet losses</text><path d="M5267.5 2324C5267.5 2112.2 5514.19 1940.5 5818.5 1940.5 6122.81 1940.5 6369.5 2112.2 6369.5 2324 6369.5 2535.8 6122.81 2707.5 5818.5 2707.5 5514.19 2707.5 5267.5 2535.8 5267.5 2324Z" stroke="#172C51" stroke-width="4.58333" stroke-miterlimit="8" fill="#4472C4" fill-rule="evenodd" fill-opacity="0.701961"/><text fill="#FFFFFF" font-family="Calibri,Calibri_MSFontService,sans-serif" font-weight="700" font-size="110" transform="matrix(1 0 0 1 5478.33 2228)">Computational </text><text fill="#FFFFFF" font-family="Calibri,Calibri_MSFontService,sans-serif" font-weight="700" font-size="110" transform="matrix(1 0 0 1 5527.96 2360)">and network </text><text fill="#FFFFFF" font-family="Calibri,Calibri_MSFontService,sans-serif" font-weight="700" font-size="110" transform="matrix(1 0 0 1 5718.77 2492)">load</text><path d="M4920 897.25 5179.07 897.25 5179.07 924.75 4920 924.75ZM5165.32 869.75 5247.82 911 5165.32 952.25Z" fill="#4472C4"/><path d="M4940 1569.25 5199.07 1569.25 5199.07 1596.75 4940 1596.75ZM5185.32 1541.75 5267.82 1583 5185.32 1624.25Z" fill="#4472C4"/><path d="M4940 2286.25 5199.07 2286.25 5199.07 2313.75 4940 2313.75ZM5185.32 2258.75 5267.82 2300 5185.32 2341.25Z" fill="#4472C4"/><rect x="734.5" y="1026.5" width="1995" height="362" stroke="#172C51" stroke-width="4.58333" stroke-miterlimit="8" fill="#FFC000"/><text fill="#FFFFFF" font-family="Calibri,Calibri_MSFontService,sans-serif" font-weight="400" font-size="128" transform="matrix(1 0 0 1 1211.36 1250)">Network Under Test</text><rect x="734.5" y="2026.5" width="1995" height="362" stroke="#172C51" stroke-width="4.58333" stroke-miterlimit="8" fill="#92D050"/><text fill="#FFFFFF" font-family="Calibri,Calibri_MSFontService,sans-serif" font-weight="400" font-size="128" transform="matrix(1 0 0 1 1126.63 2250)">Wired Control Network</text><text fill="#FFFFFF" font-family="Calibri,Calibri_MSFontService,sans-serif" font-weight="700" font-size="147" transform="matrix(1 0 0 1 1450.2 857)">Testbed</text><text font-family="Calibri,Calibri_MSFontService,sans-serif" font-weight="700" font-size="110" transform="matrix(1 0 0 1 3271.63 906)">Report files</text><path d="M2906 2267.25 3186.65 2267.25 3186.65 2294.75 2906 2294.75ZM3172.9 2239.75 3255.4 2281 3172.9 2322.25Z" fill="#4472C4"/><path d="M1714.77 2937.94 1709.64 2683.01 1737.13 2682.46 1742.26 2937.39ZM1682.42 2697.31 1722 2614 1764.9 2695.65Z" fill="#4472C4"/><rect x="4212.5" y="2918.5" width="978" height="445" stroke="#172C51" stroke-width="4.58333" stroke-miterlimit="8" fill="#4472C4" fill-opacity="0.8"/><path d="M13.75-1.37949e-05 13.7503 290.967-13.7497 290.967-13.75 1.37949e-05ZM41.2503 277.217 0.000360892 359.717-41.2497 277.217Z" fill="#4472C4" transform="matrix(1 0 0 -1 4634 2917.72)"/><path d="M5279.5 1583.5C5279.5 1429.41 5526.19 1304.5 5830.5 1304.5 6134.81 1304.5 6381.5 1429.41 6381.5 1583.5 6381.5 1737.59 6134.81 1862.5 5830.5 1862.5 5526.19 1862.5 5279.5 1737.59 5279.5 1583.5Z" stroke="#172C51" stroke-width="4.58333" stroke-miterlimit="8" fill="#4472C4" fill-rule="evenodd" fill-opacity="0.701961"/><text fill="#FFFFFF" font-family="Calibri,Calibri_MSFontService,sans-serif" font-weight="700" font-size="110" transform="matrix(1 0 0 1 5618.51 1620)">Latencies</text><path d="M747.5 1715.5C747.5 1561.41 882.262 1436.5 1048.5 1436.5 1214.74 1436.5 1349.5 1561.41 1349.5 1715.5 1349.5 1869.59 1214.74 1994.5 1048.5 1994.5 882.262 1994.5 747.5 1869.59 747.5 1715.5Z" stroke="#172C51" stroke-width="4.58333" stroke-miterlimit="8" fill="#4472C4" fill-rule="evenodd" fill-opacity="0.701961"/><text fill="#FFFFFF" font-family="Calibri,Calibri_MSFontService,sans-serif" font-weight="700" font-size="110" transform="matrix(1 0 0 1 914.155 1620)">ROS 2 </text><text fill="#FFFFFF" font-family="Calibri,Calibri_MSFontService,sans-serif" font-weight="700" font-size="110" transform="matrix(1 0 0 1 888.053 1752)">Testing </text><text fill="#FFFFFF" font-family="Calibri,Calibri_MSFontService,sans-serif" font-weight="700" font-size="110" transform="matrix(1 0 0 1 931.664 1884)">node</text><path d="M1420.5 1715.5C1420.5 1561.41 1555.04 1436.5 1721 1436.5 1886.96 1436.5 2021.5 1561.41 2021.5 1715.5 2021.5 1869.59 1886.96 1994.5 1721 1994.5 1555.04 1994.5 1420.5 1869.59 1420.5 1715.5Z" stroke="#172C51" stroke-width="4.58333" stroke-miterlimit="8" fill="#4472C4" fill-rule="evenodd" fill-opacity="0.701961"/><text fill="#FFFFFF" font-family="Calibri,Calibri_MSFontService,sans-serif" font-weight="700" font-size="110" transform="matrix(1 0 0 1 1586.77 1620)">ROS 2 </text><text fill="#FFFFFF" font-family="Calibri,Calibri_MSFontService,sans-serif" font-weight="700" font-size="110" transform="matrix(1 0 0 1 1560.67 1752)">Testing </text><text fill="#FFFFFF" font-family="Calibri,Calibri_MSFontService,sans-serif" font-weight="700" font-size="110" transform="matrix(1 0 0 1 1604.28 1884)">node</text><path d="M2092.5 1715.5C2092.5 1561.41 2227.26 1436.5 2393.5 1436.5 2559.74 1436.5 2694.5 1561.41 2694.5 1715.5 2694.5 1869.59 2559.74 1994.5 2393.5 1994.5 2227.26 1994.5 2092.5 1869.59 2092.5 1715.5Z" stroke="#172C51" stroke-width="4.58333" stroke-miterlimit="8" fill="#4472C4" fill-rule="evenodd" fill-opacity="0.701961"/><text fill="#FFFFFF" font-family="Calibri,Calibri_MSFontService,sans-serif" font-weight="700" font-size="110" transform="matrix(1 0 0 1 2259.38 1620)">ROS 2 </text><text fill="#FFFFFF" font-family="Calibri,Calibri_MSFontService,sans-serif" font-weight="700" font-size="110" transform="matrix(1 0 0 1 2233.28 1752)">Testing </text><text fill="#FFFFFF" font-family="Calibri,Calibri_MSFontService,sans-serif" font-weight="700" font-size="110" transform="matrix(1 0 0 1 2276.89 1884)">node</text><rect x="4267.5" y="2973.5" width="978" height="445" stroke="#172C51" stroke-width="4.58333" stroke-miterlimit="8" fill="#4472C4" fill-opacity="0.8"/><rect x="4322.5" y="3028.5" width="978" height="445" stroke="#172C51" stroke-width="4.58333" stroke-miterlimit="8" fill="#4472C4" fill-opacity="0.8"/><text fill="#FFFFFF" font-family="Calibri,Calibri_MSFontService,sans-serif" font-weight="700" font-size="110" transform="matrix(1 0 0 1 4409.01 3287)">Processing scripts</text><path d="M13.75-1.19654e-05 13.7503 345.967-13.7497 345.967-13.75 1.19654e-05ZM41.2503 332.217 0.000360892 414.717-41.2497 332.217Z" fill="#4472C4" transform="matrix(1 0 0 -1 4716 2972.72)"/><path d="M13.75-1.05644e-05 13.7503 400.967-13.7497 400.967-13.75 1.05644e-05ZM41.2503 387.217 0.000360892 469.717-41.2497 387.217Z" fill="#4472C4" transform="matrix(1 0 0 -1 4799 3027.72)"/><rect x="1316.5" y="2992.5" width="978" height="445" stroke="#172C51" stroke-width="4.58333" stroke-miterlimit="8" fill="#4472C4" fill-opacity="0.8"/><rect x="1371.5" y="3047.5" width="978" height="445" stroke="#172C51" stroke-width="4.58333" stroke-miterlimit="8" fill="#4472C4" fill-opacity="0.8"/><text fill="#FFFFFF" font-family="Calibri,Calibri_MSFontService,sans-serif" font-weight="700" font-size="110" transform="matrix(1 0 0 1 1434.76 3175)">Configuration Files </text><text fill="#FFFFFF" font-family="Calibri,Calibri_MSFontService,sans-serif" font-weight="700" font-size="110" transform="matrix(1 0 0 1 1540.45 3307)">and launching </text><text fill="#FFFFFF" font-family="Calibri,Calibri_MSFontService,sans-serif" font-weight="700" font-size="110" transform="matrix(1 0 0 1 1711.69 3439)">scripts</text><path d="M1791.25 2992.66 1791.25 2682.75 1818.75 2682.75 1818.75 2992.66ZM1763.75 2696.5 1805 2614 1846.25 2696.5Z" fill="#4472C4"/><path d="M13.75-1.14426e-05 13.7503 364.915-13.7497 364.915-13.75 1.14426e-05ZM41.2503 351.165 0.000360892 433.665-41.2497 351.165Z" fill="#4472C4" transform="matrix(1 0 0 -1 1882 3047.66)"/></g></svg>